<svg width="19" height="16" viewBox="0 0 19 16" fill="none" xmlns="http://www.w3.org/2000/svg">
<path d="M11.4846 2.45799C11.5448 2.39435 11.5918 2.31948 11.623 2.23766C11.6542 2.15584 11.669 2.06867 11.6665 1.98114C11.664 1.8936 11.6443 1.80741 11.6086 1.72749C11.5728 1.64756 11.5216 1.57547 11.4579 1.51533C11.3943 1.45518 11.3194 1.40816 11.2376 1.37695C11.1558 1.34574 11.0686 1.33095 10.9811 1.33343C10.8936 1.3359 10.8074 1.3556 10.7274 1.39138C10.6475 1.42717 10.5754 1.47835 10.5153 1.54199L4.84861 7.54199C4.73159 7.66577 4.66638 7.82965 4.66638 7.99999C4.66638 8.17033 4.73159 8.33421 4.84861 8.45799L10.5153 14.4587C10.575 14.5237 10.6471 14.5762 10.7273 14.6132C10.8075 14.6501 10.8943 14.6708 10.9826 14.6739C11.0708 14.677 11.1588 14.6626 11.2415 14.6314C11.3241 14.6003 11.3997 14.553 11.4639 14.4924C11.5282 14.4317 11.5797 14.3589 11.6155 14.2782C11.6514 14.1975 11.6708 14.1105 11.6727 14.0222C11.6747 13.9339 11.659 13.8461 11.6267 13.7639C11.5944 13.6817 11.5461 13.6067 11.4846 13.5433L6.24994 7.99999L11.4846 2.45799Z" fill="#C9C9C9"/>
<path d="M8.48461 2.45799C8.54476 2.39435 8.59178 2.31948 8.62299 2.23766C8.6542 2.15584 8.66899 2.06867 8.66651 1.98114C8.66403 1.8936 8.64434 1.80741 8.60855 1.72749C8.57277 1.64756 8.52159 1.57547 8.45794 1.51533C8.3943 1.45518 8.31943 1.40816 8.23761 1.37695C8.15579 1.34574 8.06862 1.33095 7.98109 1.33343C7.89355 1.3359 7.80736 1.3556 7.72744 1.39138C7.64751 1.42717 7.57542 1.47835 7.51528 1.54199L1.84861 7.54199C1.73159 7.66577 1.66638 7.82965 1.66638 7.99999C1.66638 8.17033 1.73159 8.33421 1.84861 8.45799L7.51528 14.4587C7.57503 14.5237 7.6471 14.5762 7.72732 14.6132C7.80754 14.6501 7.8943 14.6708 7.98256 14.6739C8.07082 14.677 8.15883 14.6626 8.24147 14.6314C8.32411 14.6003 8.39973 14.553 8.46394 14.4924C8.52816 14.4317 8.57968 14.3589 8.61553 14.2782C8.65137 14.1975 8.67082 14.1105 8.67274 14.0222C8.67466 13.9339 8.65902 13.8461 8.62673 13.7639C8.59443 13.6817 8.54612 13.6067 8.48461 13.5433L3.24994 7.99999L8.48461 2.45799Z" fill="#C9C9C9"/>
</svg>
