<svg width="19" height="16" viewBox="0 0 19 16" fill="none" xmlns="http://www.w3.org/2000/svg">
<path d="M7.51533 13.542C7.45518 13.6057 7.40816 13.6805 7.37695 13.7623C7.34574 13.8442 7.33095 13.9313 7.33343 14.0189C7.33591 14.1064 7.3556 14.1926 7.39138 14.2725C7.42717 14.3524 7.47835 14.4245 7.542 14.4847C7.60564 14.5448 7.68051 14.5918 7.76233 14.623C7.84415 14.6543 7.93132 14.669 8.01885 14.6666C8.10639 14.6641 8.19258 14.6444 8.2725 14.6086C8.35242 14.5728 8.42452 14.5217 8.48466 14.458L14.1513 8.45801C14.2684 8.33423 14.3336 8.17035 14.3336 8.00001C14.3336 7.82967 14.2684 7.66579 14.1513 7.54201L8.48466 1.54134C8.42491 1.4763 8.35284 1.42378 8.27262 1.38683C8.1924 1.34988 8.10564 1.32924 8.01738 1.3261C7.92912 1.32296 7.84111 1.3374 7.75847 1.36856C7.67583 1.39972 7.60021 1.447 7.536 1.50763C7.47178 1.56827 7.42026 1.64106 7.38441 1.72178C7.34857 1.8025 7.32912 1.88953 7.3272 1.97783C7.32528 2.06613 7.34092 2.15393 7.37321 2.23613C7.40551 2.31833 7.45382 2.3933 7.51533 2.45667L12.75 8.00001L7.51533 13.542Z" fill="#8E8E8E"/>
<path d="M10.5153 13.542C10.4552 13.6057 10.4082 13.6805 10.377 13.7623C10.3457 13.8442 10.331 13.9313 10.3334 14.0189C10.3359 14.1064 10.3556 14.1926 10.3914 14.2725C10.4272 14.3524 10.4783 14.4245 10.542 14.4847C10.6056 14.5448 10.6805 14.5918 10.7623 14.623C10.8442 14.6543 10.9313 14.669 11.0189 14.6666C11.1064 14.6641 11.1926 14.6444 11.2725 14.6086C11.3524 14.5728 11.4245 14.5217 11.4847 14.458L17.1513 8.45801C17.2684 8.33423 17.3336 8.17035 17.3336 8.00001C17.3336 7.82967 17.2684 7.66579 17.1513 7.54201L11.4847 1.54134C11.4249 1.4763 11.3528 1.42378 11.2726 1.38683C11.1924 1.34988 11.1056 1.32924 11.0174 1.3261C10.9291 1.32296 10.8411 1.3374 10.7585 1.36856C10.6758 1.39972 10.6002 1.447 10.536 1.50763C10.4718 1.56827 10.4203 1.64106 10.3844 1.72178C10.3486 1.8025 10.3291 1.88953 10.3272 1.97783C10.3253 2.06613 10.3409 2.15393 10.3732 2.23613C10.4055 2.31833 10.4538 2.3933 10.5153 2.45667L15.75 8.00001L10.5153 13.542Z" fill="#8E8E8E"/>
</svg>
