<svg width="16" height="16" viewBox="0 0 16 16" fill="none" xmlns="http://www.w3.org/2000/svg">
<path d="M8.48461 2.45799C8.54476 2.39435 8.59178 2.31948 8.62299 2.23766C8.6542 2.15584 8.66899 2.06867 8.66651 1.98114C8.66403 1.8936 8.64434 1.80741 8.60855 1.72749C8.57277 1.64756 8.52159 1.57547 8.45794 1.51533C8.3943 1.45518 8.31943 1.40816 8.23761 1.37695C8.15579 1.34574 8.06862 1.33095 7.98109 1.33343C7.89355 1.3359 7.80736 1.3556 7.72744 1.39138C7.64751 1.42717 7.57542 1.47835 7.51528 1.54199L1.84861 7.54199C1.73159 7.66577 1.66638 7.82965 1.66638 7.99999C1.66638 8.17033 1.73159 8.33421 1.84861 8.45799L7.51528 14.4587C7.57503 14.5237 7.6471 14.5762 7.72732 14.6132C7.80754 14.6501 7.8943 14.6708 7.98256 14.6739C8.07082 14.677 8.15883 14.6626 8.24147 14.6314C8.32411 14.6003 8.39973 14.553 8.46394 14.4924C8.52816 14.4317 8.57968 14.3589 8.61553 14.2782C8.65137 14.1975 8.67082 14.1105 8.67274 14.0222C8.67466 13.9339 8.65902 13.8461 8.62673 13.7639C8.59443 13.6817 8.54612 13.6067 8.48461 13.5433L3.24994 7.99999L8.48461 2.45799Z" fill="#8E8E8E"/>
</svg>
